<svg xmlns="http://www.w3.org/2000/svg" viewBox="0 0 32 32"><title>logic 4</title><g class="nc-icon-wrapper" stroke-linecap="square" stroke-linejoin="miter" stroke-width="2" fill="#3c54a5" stroke="#3c54a5"><path d="M25,31V21.926A11.994,11.994,0,1,0,5,13v1L2.5,19.5,5,21v4a3,3,0,0,0,3,3h5v3" fill="none" stroke="#3c54a5" stroke-miterlimit="10"/><circle cx="17" cy="13" r="4" fill="none" stroke-miterlimit="10" data-color="color-2"/><line x1="17" y1="9" x2="17" y2="7" fill="none" stroke-miterlimit="10" data-color="color-2"/><line x1="19.828" y1="10.172" x2="21.243" y2="8.757" fill="none" stroke-miterlimit="10" data-color="color-2"/><line x1="21" y1="13" x2="23" y2="13" fill="none" stroke-miterlimit="10" data-color="color-2"/><line x1="19.828" y1="15.828" x2="21.243" y2="17.243" fill="none" stroke-miterlimit="10" data-color="color-2"/><line x1="17" y1="17" x2="17" y2="19" fill="none" stroke-miterlimit="10" data-color="color-2"/><line x1="14.172" y1="15.828" x2="12.757" y2="17.243" fill="none" stroke-miterlimit="10" data-color="color-2"/><line x1="13" y1="13" x2="11" y2="13" fill="none" stroke-miterlimit="10" data-color="color-2"/><line x1="14.172" y1="10.172" x2="12.757" y2="8.757" fill="none" stroke-miterlimit="10" data-color="color-2"/></g></svg>