<svg xmlns="http://www.w3.org/2000/svg" viewBox="0 0 32 32"><title>mobile chat 4</title><g class="nc-icon-wrapper" stroke-linecap="square" stroke-linejoin="miter" stroke-width="2" fill="#3c54a5" stroke="#3c54a5"><path d="M29,15H17l-5,3V3a2,2,0,0,1,2-2H29a2,2,0,0,1,2,2V13A2,2,0,0,1,29,15Z" fill="none" stroke-miterlimit="10" data-color="color-2"/><line x1="17" y1="10" x2="21" y2="10" fill="none" stroke-miterlimit="10" data-color="color-2"/><line x1="17" y1="6" x2="26" y2="6" fill="none" stroke-miterlimit="10" data-color="color-2"/><path d="M8,3H6A3,3,0,0,0,3,6V28a3,3,0,0,0,3,3H19a3,3,0,0,0,3-3V19" fill="none" stroke="#3c54a5" stroke-miterlimit="10"/></g></svg>